# Blender v2.79 (sub 0) OBJ File: ''
# www.blender.org
mtllib chicken.mtl
o Chicken_Untitled
v -0.769914 -0.757214 -2.059760
v 0.769914 -0.757214 -2.059760
v -0.769914 0.782614 -2.059760
v 0.769914 0.782614 -2.059760
v -0.769914 -0.757214 -0.006655
v 0.769914 -0.757214 -0.006655
v -0.769914 0.782614 -0.006655
v 0.769914 0.782614 -0.006655
v 0.769914 -0.243938 -1.803122
v 1.026552 -0.243938 -1.803122
v 0.769914 0.782614 -1.803122
v 1.026552 0.782614 -1.803122
v 0.769914 -0.243938 -0.263294
v 1.026552 -0.243938 -0.263294
v 0.769914 0.782614 -0.263294
v 1.026552 0.782614 -0.263294
v -0.256638 0.269338 0.506620
v 0.256638 0.269338 0.506620
v -0.256638 0.782615 0.506620
v 0.256638 0.782615 0.506620
v -0.256638 0.269338 0.763258
v 0.256638 0.269338 0.763258
v -0.256638 0.782615 0.763258
v 0.256638 0.782615 0.763258
v -0.513276 0.782615 0.506620
v 0.513276 0.782615 0.506620
v -0.513276 1.295891 0.506620
v 0.513276 1.295891 0.506620
v -0.513276 0.782615 1.019897
v 0.513276 0.782615 1.019897
v -0.513276 1.295891 1.019897
v 0.513276 1.295891 1.019897
v -0.513276 0.269338 -0.263294
v 0.513276 0.269338 -0.263294
v -0.513276 1.809167 -0.263294
v 0.513276 1.809167 -0.263294
v -0.513276 0.269338 0.506620
v 0.513276 0.269338 0.506620
v -0.513276 1.809167 0.506620
v 0.513276 1.809167 0.506620
v -0.769914 -0.243938 -1.803122
v -1.026552 -0.243938 -1.803122
v -0.769914 0.782614 -1.803122
v -1.026552 0.782614 -1.803122
v -0.769914 -0.243938 -0.263294
v -1.026552 -0.243938 -0.263294
v -0.769914 0.782614 -0.263294
v -1.026552 0.782614 -0.263294
v -0.256638 -2.040405 -1.033208
v -0.513276 -2.040405 -1.033208
v -0.256638 -0.757214 -1.033208
v -0.513276 -0.757214 -1.033208
v -0.256638 -2.040404 -0.519931
v -0.513276 -2.040404 -0.519931
v -0.769914 -2.040405 -1.033208
v -0.769914 -2.040404 -0.519931
v -0.000000 -2.040405 -1.033208
v -0.000000 -2.040404 -0.519931
v -0.256638 -2.040404 -0.263293
v -0.513276 -2.040404 -0.263293
v 0.256638 -2.040405 -1.033208
v 0.513276 -2.040405 -1.033208
v 0.256638 -0.757214 -1.033208
v 0.513276 -0.757214 -1.033208
v 0.256638 -2.040404 -0.519931
v 0.513276 -2.040404 -0.519931
v 0.769914 -2.040405 -1.033208
v 0.769914 -2.040404 -0.519931
v -0.000000 -2.040405 -1.033208
v -0.000000 -2.040404 -0.519931
v 0.256638 -2.040404 -0.263293
v 0.513276 -2.040404 -0.263293
vt 0.280953 0.765672
vt 0.187500 0.765672
vt 0.187500 0.859340
vt 0.280953 0.859340
vt 0.093937 0.765672
vt 0.187500 0.765672
vt 0.187500 0.859340
vt 0.093937 0.859340
vt 0.280953 0.640665
vt 0.375000 0.640665
vt 0.375000 0.765672
vt 0.280953 0.765672
vt 0.000000 0.640665
vt 0.093929 0.640665
vt 0.093929 0.765672
vt 0.000000 0.765672
vt 0.187500 0.640665
vt 0.187500 0.765672
vt 0.500000 0.640881
vt 0.500000 0.700000
vt 0.468407 0.700000
vt 0.468407 0.640881
vt 0.359648 0.640881
vt 0.375273 0.640881
vt 0.375273 0.700000
vt 0.359648 0.700000
vt 0.500000 0.703139
vt 0.487522 0.703139
vt 0.487500 0.796765
vt 0.500000 0.796765
vt 0.468407 0.703139
vt 0.487522 0.703139
vt 0.487500 0.796765
vt 0.468407 0.796765
vt 0.593548 0.640881
vt 0.593548 0.700000
vt 0.250000 0.875000
vt 0.312500 0.875000
vt 0.312500 0.906269
vt 0.250000 0.906269
vt 0.250000 0.937500
vt 0.312500 0.937500
vt 0.312500 0.906269
vt 0.250000 0.906269
vt 0.343515 0.875000
vt 0.343515 0.906269
vt 0.218678 0.906269
vt 0.218678 0.875000
vt 0.400000 0.937500
vt 0.400000 0.968762
vt 0.343781 0.968762
vt 0.343781 0.937500
vt 0.250000 0.937500
vt 0.312500 0.937500
vt 0.312500 0.968762
vt 0.250000 0.968762
vt 0.312500 1.000000
vt 0.375000 1.000000
vt 0.375000 0.968762
vt 0.312500 0.968762
vt 0.312500 1.000000
vt 0.250000 1.000000
vt 0.218839 0.968762
vt 0.218839 0.937500
vt 0.218563 0.859443
vt 0.218563 0.952875
vt 0.156437 0.952875
vt 0.156437 0.859443
vt 0.046929 0.859443
vt 0.109429 0.859443
vt 0.109429 0.952875
vt 0.046929 0.952875
vt 0.691551 -0.437364
vt 0.976122 -0.437364
vt 0.976122 -0.223935
vt 0.691551 -0.223935
vt 0.109500 1.000000
vt 0.046852 1.000000
vt 0.109544 0.952875
vt 0.000000 0.952875
vt 0.000000 0.859443
vt 0.500000 0.640881
vt 0.468407 0.640881
vt 0.468407 0.700000
vt 0.500000 0.700000
vt 0.359648 0.640881
vt 0.359648 0.700000
vt 0.375273 0.700000
vt 0.375273 0.640881
vt 0.500000 0.703139
vt 0.500000 0.796765
vt 0.487500 0.796765
vt 0.487522 0.703139
vt 0.468407 0.703139
vt 0.468407 0.796765
vt 0.487500 0.796765
vt 0.487522 0.703139
vt 0.593548 0.700000
vt 0.593548 0.640881
vt 0.575000 0.950000
vt 0.575000 0.875000
vt 0.562500 0.875000
vt 0.562500 0.950000
vt 0.531222 0.953167
vt 0.531222 0.984389
vt 0.515611 0.984389
vt 0.515611 0.953167
vt 0.546833 0.953167
vt 0.546833 0.984389
vt 0.500000 0.984389
vt 0.500000 0.953167
vt 0.531222 1.000000
vt 0.515611 1.000000
vt 0.562500 0.875000
vt 0.575000 0.875000
vt 0.575000 0.950000
vt 0.562500 0.950000
vt 0.531222 0.953167
vt 0.515611 0.953167
vt 0.515611 0.984389
vt 0.531222 0.984389
vt 0.546833 0.984389
vt 0.546833 0.953167
vt 0.500000 0.953167
vt 0.500000 0.984389
vt 0.515611 1.000000
vt 0.531222 1.000000
vn 0.0000 0.0000 -1.0000
vn 0.0000 0.0000 1.0000
vn 0.0000 -1.0000 -0.0000
vn 1.0000 0.0000 0.0000
vn 0.0000 1.0000 0.0000
vn -1.0000 0.0000 0.0000
usemtl 02_-_Default
s 1
f 1/1/1 3/2/1 4/3/1 2/4/1
f 5/5/2 6/6/2 8/7/2 7/8/2
f 1/9/3 2/10/3 6/11/3 5/12/3
f 2/13/4 4/14/4 8/15/4 6/16/4
f 4/14/5 3/17/5 7/18/5 8/15/5
f 3/17/6 1/9/6 5/12/6 7/18/6
f 9/19/1 11/20/1 12/21/1 10/22/1
f 13/23/2 14/24/2 16/25/2 15/26/2
f 9/27/3 10/28/3 14/29/3 13/30/3
f 10/22/4 12/21/4 16/25/4 14/24/4
f 12/31/5 11/32/5 15/33/5 16/34/5
f 11/20/6 9/19/6 13/35/6 15/36/6
f 21/37/2 22/38/2 24/39/2 23/40/2
f 17/41/3 18/42/3 22/43/3 21/44/3
f 18/45/4 20/46/4 24/39/4 22/38/4
f 19/47/6 17/48/6 21/37/6 23/40/6
f 25/49/1 27/50/1 28/51/1 26/52/1
f 29/53/2 30/54/2 32/55/2 31/56/2
f 25/57/3 26/58/3 30/59/3 29/60/3
f 26/52/4 28/51/4 32/55/4 30/54/4
f 28/61/5 27/62/5 31/56/5 32/55/5
f 27/63/6 25/64/6 29/53/6 31/56/6
f 33/65/1 35/66/1 36/67/1 34/68/1
f 37/69/2 38/70/2 40/71/2 39/72/2
f 33/73/3 34/74/3 38/75/3 37/76/3
f 34/68/4 36/67/4 40/71/4 38/70/4
f 36/77/5 35/78/5 39/72/5 40/79/5
f 35/80/6 33/81/6 37/69/6 39/72/6
f 41/82/1 42/83/1 44/84/1 43/85/1
f 45/86/2 47/87/2 48/88/2 46/89/2
f 41/90/3 45/91/3 46/92/3 42/93/3
f 42/83/6 46/89/6 48/88/6 44/84/6
f 44/94/5 48/95/5 47/96/5 43/97/5
f 43/85/4 47/98/4 45/99/4 41/82/4
f 52/100/2 50/101/2 49/102/2 51/103/2
f 50/104/5 54/105/5 53/106/5 49/107/5
f 50/104/5 55/108/5 56/109/5 54/105/5
f 53/106/5 58/110/5 57/111/5 49/107/5
f 54/105/5 60/112/5 59/113/5 53/106/5
f 61/114/2 62/115/2 64/116/2 63/117/2
f 62/118/5 61/119/5 65/120/5 66/121/5
f 62/118/5 66/121/5 68/122/5 67/123/5
f 65/120/5 61/119/5 69/124/5 70/125/5
f 66/121/5 65/120/5 71/126/5 72/127/5
